<?xml version="1.0" encoding="UTF-8"?>
<!DOCTYPE svg PUBLIC "-//W3C//DTD SVG 1.1//EN" "http://www.w3.org/Graphics/SVG/1.1/DTD/svg11.dtd">
<!-- Creator: CorelDRAW 2018 (64 Bit) -->
<svg xmlns="http://www.w3.org/2000/svg" xml:space="preserve" width="109.504mm" height="32.45mm" version="1.1" style="shape-rendering:geometricPrecision; text-rendering:geometricPrecision; image-rendering:optimizeQuality; fill-rule:evenodd; clip-rule:evenodd"
viewBox="0 0 4674.85 1385.32"
 xmlns:xlink="http://www.w3.org/1999/xlink">
 <defs>
  <style type="text/css">
   <![CDATA[
    .fil0 {fill:#FF6600}
    .fil1 {fill:white;fill-rule:nonzero}
   ]]>
  </style>
 </defs>
 <g id="Camada_x0020_1">
  <metadata id="CorelCorpID_0Corel-Layer"/>
  <g id="_2536796572048">
   <path class="fil0" d="M444.51 337.84c440.36,-70.7 476.63,243.79 383.3,374.93 -121.36,170.53 -504.61,132.14 -589.48,-37.21 -31.1,-62.05 -10.18,-188.76 23.33,-238.81 35.98,-53.73 97.41,-85.19 182.85,-98.91zm-444.51 192.86c0,156.21 12.26,277.5 171.92,375.2 214.59,131.32 589.63,134.32 795.72,-31.29 174.6,-140.3 173.88,-487.9 -30.87,-624.12 -52.36,-34.83 -93.57,-53.67 -162.11,-73.16 -236.65,-67.31 -582.01,-30.52 -720.03,178.21 -25.47,38.51 -54.62,111.65 -54.62,175.17z"/>
   <path class="fil0" d="M3818.84 393.91c0,148.34 145.5,201.77 263.73,234.14 93.01,25.46 365.44,57.71 365.44,126.96 0,66.65 -152.26,76.59 -224.32,76.59 -221.11,0 -348.08,-81.05 -399.39,-93.01l0 196.95 192.2 43.05c87.27,14.66 138.58,22.6 234.54,22.6 441.47,0 507.61,-275.63 337.69,-419.75 -140.93,-119.53 -545.59,-120.82 -545.59,-203.95 0,-95.45 359.81,-45.21 409.3,-31.8l154.22 53.68 0 -186.02 -176.42 -42.42c-214.47,-43.37 -611.42,-48.39 -611.42,222.96z"/>
   <path class="fil0" d="M2631.61 755.01c0,86.12 62.34,149.87 115.84,185.07 127.76,84.05 323.75,68.39 463.32,16.58 29.5,-10.95 61.1,-25 91.99,-39.32 39.53,-18.31 67.28,-41.35 94.8,-41.97l0 103.95 218.85 0 0 -809.72 -218.85 0 0 492.39c0,18.46 -54.62,47.33 -68.92,56.91 -26.89,18 -50.44,32.94 -78.73,47.11 -130.98,65.59 -399.45,116.59 -399.45,-114.96l0 -481.45 -218.85 0 0 585.41z"/>
   <path class="fil0" d="M1515.5 289.97c0,-46.34 -5.47,-72.07 -5.47,-120.37l-218.84 0 0 809.72 218.84 0 0 -475.99c0,-25.16 113.08,-106.37 136.96,-120.18 84.99,-49.19 220.78,-69.84 320.2,-46.99 23.36,5.37 43.45,15 62.61,19.46l0 -186.02c-126.58,-10.54 -178.34,-55.19 -359.3,29.15 -83.29,38.81 -108.59,66.67 -154.99,91.22z"/>
   <polygon class="fil0" points="2166.56,979.32 2385.41,979.32 2385.41,169.6 2166.56,169.6 "/>
   <path class="fil0" d="M2172.04 131.3l218.85 0 0 -131.3c-30.09,7.01 -146.3,65.43 -180.57,82.04 -33.64,16.3 -38.27,6.4 -38.27,49.26z"/>
  </g>
  <path class="fil1" d="M99.26 1380.26l0 -225.54 -81.33 0 0 -27.47 193.01 0 0 27.47 -81.33 0 0 225.54 -30.36 0zm433.68 0l0 -253.02 155.79 0 0 27.47 -125.43 0 0 84.58 115.3 0 0 27.47 -115.3 0 0 86.02 127.23 0 0 27.47 -157.59 0zm578.27 5.06c-30.12,0 -54.1,-8.73 -71.93,-26.2 -17.83,-17.47 -26.75,-42.95 -26.75,-76.45l0 -57.83c0,-33.5 8.91,-58.98 26.75,-76.45 17.83,-17.47 41.81,-26.2 71.93,-26.2 29.88,0 52.83,8.31 68.86,24.94 16.03,16.62 24.04,39.4 24.04,68.31l0 1.81 -30 0 0 -2.89c0,-19.04 -5.12,-34.64 -15.36,-46.81 -10.24,-12.17 -26.08,-18.25 -47.53,-18.25 -21.44,0 -38.19,6.57 -50.24,19.7 -12.05,13.13 -18.07,31.51 -18.07,55.12l0 59.28c0,23.62 6.02,41.99 18.07,55.12 12.05,13.13 28.8,19.7 50.24,19.7 21.45,0 37.29,-6.08 47.53,-18.25 10.24,-12.17 15.36,-27.77 15.36,-46.81l0 -5.78 30 0 0 4.7c0,28.92 -8.01,51.69 -24.04,68.31 -16.02,16.63 -38.98,24.94 -68.86,24.94zm423.92 -5.06l0 -253.02 58.92 0 88.2 233.86 4.7 0 0 -233.86 30 0 0 253.02 -58.92 0 -87.83 -234.22 -5.06 0 0 234.22 -30 0zm615.13 5.06c-30.12,0 -54.16,-8.73 -72.11,-26.2 -17.95,-17.47 -26.93,-42.95 -26.93,-76.45l0 -57.83c0,-33.5 8.98,-58.98 26.93,-76.45 17.95,-17.47 41.99,-26.2 72.11,-26.2 30.36,0 54.52,8.73 72.47,26.2 17.95,17.47 26.93,42.95 26.93,76.45l0 57.83c0,33.5 -8.97,58.98 -26.93,76.45 -17.96,17.47 -42.11,26.2 -72.47,26.2zm0 -27.11c21.93,0 38.92,-6.57 50.96,-19.7 12.05,-13.13 18.07,-31.39 18.07,-54.76l0 -60c0,-23.37 -6.02,-41.63 -18.07,-54.76 -12.05,-13.13 -29.04,-19.7 -50.96,-19.7 -21.69,0 -38.55,6.57 -50.61,19.7 -12.05,13.13 -18.07,31.39 -18.07,54.76l0 60c0,23.37 6.02,41.63 18.07,54.76 12.05,13.13 28.92,19.7 50.61,19.7zm433.32 22.05l0 -253.02 30.36 0 0 225.54 127.96 0 0 27.47 -158.32 0zm565.25 5.06c-30.12,0 -54.16,-8.73 -72.11,-26.2 -17.95,-17.47 -26.93,-42.95 -26.93,-76.45l0 -57.83c0,-33.5 8.98,-58.98 26.93,-76.45 17.95,-17.47 41.99,-26.2 72.11,-26.2 30.36,0 54.52,8.73 72.47,26.2 17.95,17.47 26.93,42.95 26.93,76.45l0 57.83c0,33.5 -8.97,58.98 -26.93,76.45 -17.96,17.47 -42.11,26.2 -72.47,26.2zm0 -27.11c21.93,0 38.92,-6.57 50.96,-19.7 12.05,-13.13 18.07,-31.39 18.07,-54.76l0 -60c0,-23.37 -6.02,-41.63 -18.07,-54.76 -12.05,-13.13 -29.04,-19.7 -50.96,-19.7 -21.69,0 -38.55,6.57 -50.61,19.7 -12.05,13.13 -18.07,31.39 -18.07,54.76l0 60c0,23.37 6.02,41.63 18.07,54.76 12.05,13.13 28.92,19.7 50.61,19.7zm521.51 27.11c-18.8,0 -35.36,-3.91 -49.7,-11.74 -14.34,-7.83 -25.54,-19.34 -33.61,-34.52 -8.07,-15.18 -12.11,-33.98 -12.11,-56.39l0 -57.83c0,-33.5 8.91,-58.98 26.75,-76.45 17.83,-17.47 41.81,-26.2 71.93,-26.2 29.88,0 52.65,8.19 68.31,24.58 15.66,16.38 23.5,38.32 23.5,65.79l0 1.81 -30 0 0 -2.53c0,-12.05 -2.17,-22.77 -6.51,-32.17 -4.34,-9.4 -11.08,-16.81 -20.24,-22.23 -9.16,-5.42 -20.85,-8.13 -35.06,-8.13 -21.44,0 -38.19,6.57 -50.24,19.7 -12.05,13.13 -18.07,31.51 -18.07,55.12l0 59.28c0,23.62 6.02,41.99 18.07,55.12 12.05,13.13 28.92,19.7 50.61,19.7 21.2,0 36.81,-6.02 46.81,-18.07 10,-12.05 15,-28.07 15,-48.07l0 -6.14 -76.63 0 0 -26.02 106.27 0 0 120.36 -27.47 0 0 -27.47 -5.06 0c-2.65,5.3 -6.38,10.48 -11.2,15.54 -4.82,5.06 -11.33,9.16 -19.52,12.29 -8.19,3.13 -18.8,4.7 -31.81,4.7zm433.68 -5.06l0 -253.02 30.36 0 0 253.02 -30.36 0zm351.64 0l78.07 -253.02 53.49 0 78.08 253.02 -31.45 0 -19.52 -63.98 -107.71 0 -19.52 63.98 -31.45 0zm58.55 -91.45l92.17 0 -43.37 -143.13 -5.06 0 -43.73 143.13z"/>
 </g>
</svg>
